<?xml version="1.0" standalone="no"?>
<!DOCTYPE svg PUBLIC "-//W3C//DTD SVG 1.1//EN" "http://www.w3.org/Graphics/SVG/1.1/DTD/svg11.dtd">
<svg xmlns="http://www.w3.org/2000/svg">
<metadata>Copyright (C) 2020 by original authors @ fontello.com</metadata>
<defs>
<font id="fontello" horiz-adv-x="1000" >
<font-face font-family="fontello" font-weight="400" font-stretch="normal" units-per-em="1000" ascent="850" descent="-150" />
<missing-glyph horiz-adv-x="1000" />
<glyph glyph-name="add" unicode="&#xe800;" d="M500-94c-17 0-28 11-28 27v389h-389c-16 0-27 11-27 28s11 28 27 28h389v389c0 16 11 27 28 27s28-11 28-27v-389h389c16 0 27-11 27-28s-11-28-27-28h-389v-389c0-16-11-27-28-27z" horiz-adv-x="1000" />

<glyph glyph-name="back" unicode="&#xe801;" d="M464-100c-14 0-28 7-35 14l-393 400c-22 22-22 57 0 79l393 386c21 21 50 21 71 0s21-50 0-72l-357-357 357-357c21-22 21-57 0-79-7-7-21-14-36-14z" horiz-adv-x="571" />

<glyph glyph-name="bookmark-1" unicode="&#xe802;" d="M675 434c-6 0-12 4-19 7l-93 72-94-72c-10-7-22-10-31-3-10 6-16 15-16 25v309c0 16 12 28 28 28s28-12 28-28v-250l66 50c9 9 25 9 34 0l66-50v250c0 16 12 28 28 28s28-12 28-28v-309c0-13-6-22-16-25-3-4-6-4-9-4z m-475-421v675c0 31 25 56 53 56h560v-647c0-16 12-28 28-28s28 12 28 28v675c0 16-13 28-28 28h-588c-62 0-112-50-112-112v-679c0-15 12-28 28-28s31 13 31 32z m669-101l0 0c3 4 3 10 3 13v169c0 15-13 28-28 28h-531v622c0 15-16 28-32 28s-28-13-28-28v-616c-62 0-112-53-112-112 0-63 50-116 112-116h588c12-3 22 3 28 12z m-28 16l0 0 0 0z m-28 138v-110h-560c-31 0-53 25-53 57s25 56 53 56h560z" horiz-adv-x="1000" />

<glyph glyph-name="calendar" unicode="&#xe803;" d="M938-88h-875v801h184v75h62v-75h160v75h62v-75h160v75h62v-75h185v-801z m-813 63h750v453h-750v-453z m0 516h750v159h-122v-75h-62v75h-160v-75h-62v75h-160v-75h-62v75h-122v-159z m444-432h-138v100h138v-100z m-222 0h-138v100h138v-100z m444 185h-138v100h138v-100z m-222 0h-138v100h138v-100z m-222 0h-138v100h138v-100z m-106 69h75v-38h-75v38z m222 0h75v-38h-75l0 38z m-222-185h75v-37h-75v37z m222 0h75v-37h-75l0 37z m221 185h75v-38h-75v38z" horiz-adv-x="1000" />

<glyph glyph-name="card" unicode="&#xe804;" d="M875-58h-750c-62 0-117 50-117 116v584c0 62 50 116 117 116h750c63 0 117-50 117-116v-584c0-62-54-116-117-116z m-800 416v-300c0-29 25-50 50-50h750c29 0 50 25 50 50v300h-850z m0 63h854v104h-854v-104z m0 167h854v54c0 29-25 54-50 54h-754c-29-4-50-25-50-54v-54z m750-438h-104v63h104v-63z m-375 0h-275v63h271v-63z" horiz-adv-x="1000" />

<glyph glyph-name="case" unicode="&#xe805;" d="M844-106h-688c-62 0-112 50-112 112v125c0 25 19 50 50 50s50-18 50-50v-125c0-6 6-12 12-12h688c6 0 12 6 12 12v125c0 25 19 50 50 50s50-18 50-50v-125c-6-62-50-112-112-112z m125 312h-938c-25 0-50 19-50 50v313c0 62 50 112 113 112h200v138c0 25 19 50 50 50h312c25 0 50-19 50-50v-138h200c63 0 113-50 113-112v-313c-6-25-25-50-50-50z m-894 94h844v269c0 6-6 12-13 12h-812c-6 0-13-6-13-12v-269z m313 375h218v94h-218v-94z" horiz-adv-x="1000" />

<glyph glyph-name="classes" unicode="&#xe806;" d="M897 850h-650c-67 0-121-54-122-122a55 55 0 0 1 0-3v-667c0-115 91-208 203-208h569c22 0 41 19 41 42v916a41 41 0 0 1-41 42z m-650-83h609v-84h-609a41 41 0 0 0-41 42c0 23 18 42 41 42z m284-167h82v-108l-12 12a40 40 0 0 1-58 0l-12-12v108z m-325-542v549l3-1 2 0c2-1 3-1 5-2l2 0 4-1 2-1a120 120 0 0 1 9-1l2 0 4-1 2 0 6 0h41v-660a125 125 0 0 0-82 118z m650-125h-487v667h81v-208c0-37 44-56 69-30l53 54 52-54c26-26 70-7 70 30v208h162v-667z" horiz-adv-x="1000" />

<glyph glyph-name="dashboard" unicode="&#xe807;" d="M525-150l6 0 7 0 12 0 0 0c6 0 6 0 13 0h0c275 31 468 281 437 556-31 275-281 469-556 438s-469-281-438-556c25-232 213-413 450-438l0 0 13 0 6 0 6 0 7 0 6 0c6 0 19 0 25 0l6 0c-6 0 0 0 0 0z m6 87c-6 0-12 0-18 0l-7 0c-6 0-12 0-18 0l-7 0c-6 0-12 0-18 0l0 0c-82 7-157 38-219 88 62 75 156 119 256 119s194-44 256-119c-62-50-137-81-225-88 7 0 0 0 0 0z m-443 369h81c19 0 37 19 37 44 0 25-18 44-43 44h-75c6 81 37 156 87 219l56-57c19-18 44-12 63 0 12 19 12 44 0 57l-56 62c62 50 137 81 218 88v-82c0-18 19-37 44-37 25 0 44 19 44 44v75c81-7 156-38 219-88l-57-56c-18-19-12-44 0-56 19-13 44-13 57 0l56 56c50-63 81-138 94-225h-82c-25 0-43-19-43-44 0-25 18-44 43-44h82c-7-87-44-162-100-231-75 94-194 150-313 150-119 0-237-56-319-144-56 63-87 144-93 225z m381-12c25-6 50 0 62 25l88 219c6 25 0 50-25 56 0 0 0 0 0 0-25 6-50 0-63-25l-87-219c-13-25 0-50 25-56 0 0 0 0 0 0z" horiz-adv-x="1000" />

<glyph glyph-name="delete" unicode="&#xe808;" d="M731-150h-462c-81 0-150 69-150 156v438c0 19 12 31 31 31s31-12 31-31v-438c0-50 38-94 88-94h469c50 0 87 44 87 94v438c0 19 13 31 31 31s32-12 32-31v-438c-7-87-75-156-157-156z m-56 188c-19 0-31 12-31 31v312c0 19 12 32 31 32s31-13 31-32v-312c0-19-12-31-31-31z m-175 0c-19 0-31 12-31 31v312c0 19 12 32 31 32s31-13 31-32v-312c0-19-12-31-31-31z m-175 0c-19 0-31 12-31 31v312c0 19 12 32 31 32s31-13 31-32v-312c0-19-12-31-31-31z m581 562h-812c-19 0-31 13-31 31s12 32 31 32h262v156c-6 19 13 31 25 31h232c18 0 31-12 31-31v-156h262c19 0 32-13 32-32s-13-31-32-31z m-493 63h168v125h-168v-125z" horiz-adv-x="1000" />

<glyph glyph-name="down-arrow" unicode="&#xe809;" d="M500 97c-6 0-18 0-23 6l-442 447c-11 12-11 29 0 41s30 12 42 0l417-417 418 417c12 12 29 12 41 0s12-29 0-41l-441-441c6-6-6-12-12-12z" horiz-adv-x="1000" />

<glyph glyph-name="up-arrow" unicode="&#xe80a;" d="M500 603c-6 0-18 0-23-6l-442-441c-11-12-11-29 0-41s30-12 42 0l417 417 418-417c12-12 29-12 41 0s12 29 0 41l-429 435c-6 6-18 12-24 12z" horiz-adv-x="1000" />

<glyph glyph-name="down" unicode="&#xe80b;" d="M250 475l250-312 250 312z" horiz-adv-x="1000" />

<glyph glyph-name="edit" unicode="&#xe80c;" d="M938-150h-875c-19 0-32 12-32 31s13 31 32 31h875c18 0 31-12 31-31s-13-31-31-31z m-875 156c-7 0-19 7-25 7-7 6-13 18-7 31l63 250c0 6 6 12 6 12l531 532c13 12 32 12 44 0l188-188c12-12 12-31 0-44l-532-531c-6-6-6-6-12-6l-250-63c0 0-6 0-6 0z m93 263l-50-194 194 50 375 375-144 150-375-381z m419 425l144-144 81 81-144 144-81-81z" horiz-adv-x="1000" />

<glyph glyph-name="face" unicode="&#xe80d;" d="M313 350c33 0 62-29 62-62s-29-63-62-63-63 29-63 63 29 62 63 62z m375 0c33 0 62-29 62-62s-29-63-62-63c-34 0-63 29-63 63s29 62 63 62z m312 42c0 16-12 33-29 33 0 0-154 13-271 200-4 8-12 13-21 13-8 0-16 0-25-9-129-116-254-116-366-116-105 0-205 0-275-96-9-13-9-34 8-42 12-8 33-8 42 8 54 71 125 71 225 71 108 0 241 0 379 113 133-184 291-196 300-196 0 0 0 0 0 0 16-8 29 4 33 21z m-500-542c-275 0-500 225-500 500 0 275 225 500 500 500 275 0 500-225 500-500 0-275-225-500-500-500z m0 938c-242 0-437-196-437-438 0-242 195-438 437-438 242 0 438 196 438 438 0 242-196 438-438 438z" horiz-adv-x="1000" />

<glyph glyph-name="forward" unicode="&#xe80e;" d="M71-100c15 0 29 7 36 14l393 400c21 22 21 57 0 79l-393 386c-21 21-50 21-71 0s-22-50 0-72l357-357-357-357c-22-22-22-57 0-79 7-7 21-14 35-14z" horiz-adv-x="571" />

<glyph glyph-name="logout" unicode="&#xe80f;" d="M955-150h-452c-64 0-116 52-116 116v194c0 26 20 45 52 45s51-19 51-52v-193c0-7 7-13 13-13h452c6 0 13 6 13 13v774c0 6-7 13-13 13h-452c-6 0-13-7-13-13v-194c0-25-19-51-51-51s-52 26-52 51v194c0 64 52 116 116 116h452c64 0 116-52 116-116v-774c-6-58-58-110-116-110z m-710 258c-13 0-26 7-32 13l-194 194c-12 6-12 12-12 19-7 6-7 6-7 13s0 13 7 19c0 7 6 13 12 13l194 194c19 19 52 19 71 0s19-52 0-71l-116-104h593c26 0 52-19 52-51s-19-52-52-52h-593l109-109c20-20 20-52 0-71-12 0-25-7-32-7z" horiz-adv-x="1065" />

<glyph glyph-name="eye" unicode="&#xe810;" d="M500-25c-294 0-487 344-494 363-6 6-6 18 0 25 7 18 200 362 494 362s488-344 494-362c6-7 6-19 0-32-6-12-200-356-494-356z m-431 375c37-62 206-312 431-312 225 0 394 250 431 312-37 63-206 313-431 313-225 0-394-250-431-313z m431-187c-106 0-187 81-187 187s81 188 187 188 188-82 188-188-82-187-188-187z m0 312c-69 0-125-56-125-125 0-69 56-125 125-125 69 0 125 56 125 125 0 69-56 125-125 125z" horiz-adv-x="1000" />

<glyph glyph-name="money" unicode="&#xe811;" d="M466 102h-432c-17 0-34 13-34 34v680c0 21 13 34 34 34h932c17 0 34-13 34-34v-437c0-16-13-33-34-33s-33 12-33 33v408h-870v-622h403c17 0 34-12 34-33s-13-30-34-30z m160 374c0 67-55 126-126 126-67 0-126-54-126-126s55-126 126-126c67 0 126 55 126 126z m-63 0c0-34-29-63-63-63-34 0-63 29-63 63s29 63 63 63c34 0 63-29 63-63z m437-374v126c0 17-13 34-34 34s-33-13-33-34v-126c0-25-59-63-156-63s-155 38-155 63v126c0 17-13 34-34 34s-33-13-33-34v-126c0-71 92-126 218-126 130 0 227 55 227 126z m-500 156c0 16-13 33-34 33h-155c-13 63-59 109-122 122v126c63 13 109 59 122 122h378c13-63 59-109 122-122v-97c0-16 13-33 34-33s33 12 33 33v127c0 16-12 33-33 33-55 0-93 42-93 93 0 16-12 33-33 33h-437c-17-4-34-17-34-33 0-55-42-93-92-93-17 0-30-17-30-33v-190c0-16 13-33 34-33 54 0 92-42 92-93 0-16 13-33 34-33h189c12 4 25 21 25 38z m500-282v126c0 17-13 34-34 34s-33-13-33-34v-126c0-25-59-63-156-63s-155 38-155 63v126c0 17-13 34-34 34s-33-13-33-34v-126c0-71 92-126 218-126 130 0 227 55 227 126z m0 252c0 72-92 126-218 126s-219-54-219-126 93-126 219-126 218 55 218 126z m-63 0c0-25-59-63-155-63s-156 38-156 63 59 63 156 63 155-38 155-63z" horiz-adv-x="1000" />

<glyph glyph-name="menu" unicode="&#xe812;" d="M125 725h750c25 0 42-17 42-42l0 0c0-25-17-41-42-41h-750c-25 0-42 16-42 41l0 0c0 25 17 42 42 42z m0-333h750c25 0 42-17 42-42l0 0c0-25-17-42-42-42h-750c-25 0-42 17-42 42l0 0c0 25 17 42 42 42z m417-334h333c25 0 42-16 42-41l0 0c0-25-17-42-42-42h-333c-25 0-42 17-42 42l0 0c0 25 17 41 42 41z" horiz-adv-x="1000" />

<glyph glyph-name="notify" unicode="&#xe813;" d="M500-150c-25 0-50 6-75 12-44 19-75 57-94 94-6 19 0 31 19 44 19 6 31 0 44-19 12-31 37-50 62-62 63-25 138 0 163 62 6 19 25 25 44 19 18-6 25-25 18-44-37-62-106-106-181-106z m0 188c-250 0-500 62-500 187 0 25 13 69 81 106 63 38 107 113 107 188v19c0 175 137 312 312 312s313-137 313-312v-19 0c0-75 43-150 106-188 62-37 81-75 81-106 0-125-250-187-500-187z m0 750c-137 0-250-113-250-250v-19c0-100-56-194-137-244-32-19-50-37-50-50 0-50 168-125 437-125 269 0 438 75 438 125 0 13-19 31-50 50-82 50-138 144-138 244v19c0 137-112 250-250 250z m281-269l0 0 0 0z" horiz-adv-x="1000" />

<glyph glyph-name="ok" unicode="&#xe814;" d="M469-144c-100 0-194 31-275 88-100 75-169 181-188 306-37 256 138 494 388 531 100 13 200 0 287-50 13-6 19-25 13-43-6-13-25-19-44-13-75 38-162 56-250 38-212-32-362-232-331-457 19-106 75-200 162-262 88-63 194-88 300-75 107 18 200 75 263 162 62 88 87 194 75 300 0 19 6 32 25 38 19 0 31-6 37-25 19-125-12-244-81-344-75-100-181-169-306-188-31-6-56-6-75-6z m0 332c-6 0-19 6-25 6l-200 206c-13 13-13 31 0 44s31 12 44 0l175-175 512 512c13 13 31 13 44 0s12-31 0-43l-531-532c-7-12-13-18-19-18z" horiz-adv-x="1000" />

<glyph glyph-name="upload" unicode="&#xe815;" d="M1000-119h-1000c-6 0-19 6-25 13-6 6-6 18-6 25l69 562c0 13 12 25 31 25h212c19 0 32-12 32-31s-13-31-25-31h-188l-62-500h931l-63 500h-187c-19 0-31 12-31 31s12 31 31 31h212c19 0 32-12 32-25l68-562c0-7 0-19-6-25-6-7-19-13-25-13z m-500 313c-19 0-31 12-31 31v550l-131-137c-13-13-32-13-44 0s-13 31 0 43l187 188c0 0 0 0 0 0l0 0c0 0 0 0 0 0l0 0c0 0 7 6 13 6 6 0 6 0 12 0l0 0c0 0 0 0 0 0 0 0 0 0 0 0h0c0 0 0 0 0 0h0c0 0 0 0 0 0 0 0 0 0 0 0l0 0c7 0 7 0 13 0 6 0 6-6 12-6l0 0c0 0 0 0 0 0l0 0c0 0 0 0 0 0l188-188c12-12 12-31 0-43s-31-13-44 0l-144 137v-550c0-19-12-31-31-31z" horiz-adv-x="1000" />

<glyph glyph-name="profile" unicode="&#xe816;" d="M436-150c-290 0-418 127-424 133-6 12-12 25-12 31 0 133 79 254 194 315 24 12 48 0 61-18 12-25 0-49-19-61-84-42-139-121-145-212 36-30 151-97 345-97 200 0 310 67 346 97-6 91-61 170-146 212-24 12-30 36-18 61 12 24 37 30 61 18 121-61 194-182 194-315 0-12-6-25-12-31 0-6-134-133-425-133z m0 424c-139 0-254 176-254 322 0 139 115 254 254 254 140 0 255-115 255-254 6-146-109-322-255-322z m0 485c-90 0-169-73-169-170 6-97 85-224 169-224 91 0 170 127 170 231 0 90-73 163-170 163z" horiz-adv-x="879" />

<glyph glyph-name="resources" unicode="&#xe817;" d="M1000 663a42 42 0 0 1-42 41h-557l-30 60a42 42 0 0 1-38 24h-291a42 42 0 0 1-42-42v-792c0-23 19-42 42-42h916a42 42 0 0 1 42 42v542 167z m-83-42v-83h-433l-41 83h474z m0-625h-834v708h225l113-227a42 42 0 0 1 37-23h459v-458z" horiz-adv-x="1000" />

<glyph glyph-name="search" unicode="&#xe818;" d="M994-100l-244 244c69 75 106 175 106 281 0 238-193 425-425 425-237 0-431-194-431-425 0-237 194-425 425-425 106 0 206 38 281 106l244-244c6-6 13-6 19-6 19 0 31 13 31 31 0 0-6 7-6 13z m-931 525c0 200 162 363 362 363 200 0 369-163 369-369 0-200-163-369-369-369-200 6-362 169-362 375z" horiz-adv-x="1000" />

<glyph glyph-name="settings" unicode="&#xe819;" d="M969 438l-56 12c-38 6-63 44-57 81 0 13 7 19 13 32l37 50c13 18 13 37-6 56l-75 75c-12 12-37 19-50 6l-44-31c-43-31-87-25-106 6-6 13-12 19-12 31l-13 57c0 25-19 37-37 37h-107c-18 0-37-12-43-31l-13-75c-6-38-44-63-81-56-13 0-19 6-25 12l-63 44c-18 6-37 6-56-6l-75-75c-12-19-12-38 0-57l38-50c31-43 6-100-44-112l-63-6c-18-7-31-25-31-44v-106c0-19 13-38 38-44l56-6c37-7 69-44 62-82 0-12-6-18-12-31l-31-44c-13-18-7-37 6-50l69-81c12-13 37-19 56-6l50 37c31 25 75 19 100-12 6-7 12-19 12-32l13-56c0-19 19-31 37-31h107c18 0 37 12 43 37l7 38c6 37 43 69 81 62 12 0 25-6 31-12l31-25c19-13 38-13 57 6l75 75c12 13 18 38 6 50l-31 44c-25 38-19 81 12 100 6 6 19 13 31 13l57 6c25 6 37 25 37 44v106c0 19-12 37-31 44l0 0z m-50-113l-25-6c-113-19-169-144-106-238l12-18-25-25 0 0c-94 68-225 12-244-101l0-6h-43l-7 19c-18 113-150 163-243 94l-13-6-25 25 13 18c62 94 6 225-107 238l-25 6v38l19 6c113 19 163 150 94 244l-6 12 25 25 31-19c94-62 219-12 237 100l7 38h37l6-25c19-113 144-169 238-106l19 12 25-25-13-19c-69-93-19-225 94-243l19-7c6 7 6-31 6-31z m-419 213c-106 0-187-82-187-188s81-187 187-187 188 81 188 187-82 188-188 188z m0-313c-69 0-125 56-125 125s56 125 125 125 125-56 125-125-56-125-125-125z" horiz-adv-x="1000" />

<glyph glyph-name="stats" unicode="&#xe81a;" d="M1107-150h-214c-22 0-36 14-36 36v928c0 22 14 36 36 36h214c22 0 36-14 36-36v-928c0-22-14-36-36-36z m-178 71h142v858h-142v-858z m-250-71h-215c-21 0-35 14-35 36v643c0 21 14 35 35 35h215c21 0 35-14 35-35v-643c0-22-14-36-35-36z m-179 71h143v572h-143v-572z m-250-71h-214c-22 0-36 14-36 36v357c0 21 14 36 36 36h214c21 0 36-15 36-36v-357c0-22-15-36-36-36z m-179 71h143v286h-143v-286z" horiz-adv-x="1143" />

<glyph glyph-name="subscription" unicode="&#xe81b;" d="M744 769h-100l12 19c13 18 0 43-18 56 0 0 0 0 0 0-25 12-50 6-57-19l-31-62h-37l-32 62c-6 25-31 31-56 19-19-6-31-31-19-50 0 0 0 0 0 0l13-25h-100c-75 0-131-56-131-125v-669c0-69 56-125 131-125h431c69 0 131 56 131 125v669c-6 69-62 125-137 125z m44-788c0-25-19-37-44-37h-425c-25 0-44 18-44 37v644c0 25 19 38 44 38h144l31-57 0 0c6-6 12-12 19-12 0 0 0 0 0 0l0 0c0 0 6 0 6 0l0 0c0 0 0 0 0 0l0 0c0 0 0 0 0 0h6l0 0 0 0c0 0 0 0 0 0l0 0c0 0 6 0 6 0l0 0 0 0c25 0 32 6 38 12l0 0 31 57h144c25 0 44-19 44-38v-644l0 0z m-138 557h-237c-19 0-38-13-38-32s19-31 38-31h237c19 0 38 13 38 31s-19 32-38 32z" horiz-adv-x="1000" />

<glyph glyph-name="users" unicode="&#xe81c;" d="M344 331c-131 0-238 107-238 238s107 237 238 237 237-106 237-237-106-238-237-238z m0 375c-75 0-138-62-138-137s63-144 138-144 137 63 137 144-62 137-137 137z m437-312c-93 0-168 81-168 175s75 175 175 175 175-75 175-175-88-175-182-175z m0 250c-43 0-75-38-75-75s38-81 75-81 75 37 75 81-31 75-75 75z m-125-750h-625c-25 0-50 18-50 50 0 200 163 362 363 362s362-162 362-362c-6-25-25-50-50-50z m-575 93h525c-25 126-131 219-262 219s-238-93-263-219z m888 32h-188c-25 0-50 19-50 50s19 50 50 50h138v12c0 25-6 57-25 75-44 63-131 82-194 38-19-13-50-6-62 12-13 19-7 50 12 63 106 69 256 44 325-63 25-37 38-81 38-131v-62c0-19-19-44-44-44z" horiz-adv-x="1000" />

<glyph glyph-name="warning" unicode="&#xe81d;" d="M500-150c-275 0-500 225-500 500 0 275 225 500 500 500 275 0 500-225 500-500 0-275-225-500-500-500z m0 938c-237 0-437-200-437-438s193-438 437-438c238 0 438 194 438 438s-200 438-438 438z m0-750c-19 0-31 12-31 31v62c0 19 12 32 31 32s31-13 31-32v-62c0-19-12-31-31-31z m0 187c-19 0-31 13-31 31v375c0 19 12 32 31 32s31-13 31-32v-375c0-18-12-31-31-31z" horiz-adv-x="1000" />

<glyph glyph-name="eye-off" unicode="&#xe81e;" d="M63-119c-7 0-19 0-25 6-13 13-13 32 0 44l162 163c-119 100-194 231-200 237 0 13 0 25 6 32 7 18 200 362 494 362 94 0 175-37 250-81l169 169c12 12 31 12 44 0s12-32 0-44l-163-163c119-100 194-231 200-237 6-6 6-19 0-31-12-19-206-363-500-363-94 0-175 38-250 81l-169-169c0-6-12-6-18-6z m237 225c56-43 125-68 200-68 225 0 394 250 431 312-25 38-87 131-181 213l-450-457z m-231 244c25-37 87-131 181-212l456 456c-62 44-131 69-206 69-225 0-394-250-431-313z m431-219c-19 0-31 13-31 32s12 31 31 31c88 0 156 69 156 156 0 19 13 31 32 31s31-12 31-31c0-119-100-219-219-219z m-187 188c-19 0-32 12-32 31 0 119 100 219 219 219 19 0 31-13 31-31s-12-32-31-32c-87 0-156-68-156-156 0-19-13-31-31-31z" horiz-adv-x="1000" />

<glyph glyph-name="female" unicode="&#xe81f;" d="M471-150h-59v278h59v-278z m411 165c0 43-23 82-58 106l-267 157-31-51 266-157c20-12 32-32 32-55v-106h-765v106c0 23 12 43 31 55l267 157-31 51-267-157c-35-24-59-63-59-106v-165h882v165z m-156 557c0 153-126 278-283 278s-286-125-286-278c0-208 125-377 282-377s287 169 287 377z m-59 0c0-173-102-318-224-318-121 0-223 145-223 318 0 121 102 219 223 219s224-98 224-219z m180-330l12 24-20 15c-113 83-113 287-113 291h-32v27c-63 0-117 24-157 67l-19 23-24-23c-39-43-110-67-180-67-39 0-79 8-114 24l-20-51h-23c0-4 0-204-114-291l-19-15 11-24c36-74 142-106 145-110l16 59c-19 8-70 28-98 59 98 90 114 251 118 302 31-8 66-12 98-12 78 0 149 24 200 67 39-35 94-59 149-63 4-63 23-204 117-290-27-31-78-55-98-59l20-55c8-4 110 32 145 102z" horiz-adv-x="882" />

<glyph glyph-name="male" unicode="&#xe820;" d="M510-150h-59v278h59v-278z m451 145c0 59-32 110-83 137l-282 149-27-51 282-149c31-15 51-47 51-82v-90h-843v82c0 36 19 67 51 87l282 149-27 51-283-150c-51-27-82-78-82-137v-145h961v149z m-192 577c0 153-130 278-287 278-156 0-286-125-286-278 0-208 130-377 286-377 157 0 287 169 287 377z m-59 0c0-173-106-318-228-318s-227 145-227 318c-4 121 98 219 223 219 130 0 232-98 232-219z m27 27c-62 0-121 24-157 67l-19 23-24-19c-43-47-113-71-184-71-39 0-82 8-118 24l-23-55c43-20 90-28 141-28 78 0 153 24 204 67 47-43 114-67 180-67v59z" horiz-adv-x="961" />

<glyph glyph-name="right-arrow" unicode="&#xe821;" d="M747 356c0-6 0-18-6-24l-447-441c-12-12-29-12-41 0-12 12-12 30 0 41l418 418-418 418c-12 11-12 29 0 41s29 12 41 0l441-441c6 6 12-6 12-12z" horiz-adv-x="1000" />

<glyph glyph-name="left-arrow" unicode="&#xe822;" d="M241 344c0 6 0 18 6 24l447 441c12 12 30 12 41 0 12-12 12-30 0-41l-417-418 417-418c12-11 12-29 0-41s-29-12-41 0l-441 441c-6-5-12 6-12 12z" horiz-adv-x="1000" />

<glyph glyph-name="checkmark" unicode="&#xe823;" d="M313-13c-13 0-25 7-32 13l-250 250c-18 19-18 50 0 69s50 19 69 0l213-213 593 594c19 19 50 19 69 0s19-50 0-69l-625-625c-12-12-25-19-37-19z" horiz-adv-x="1000" />

<glyph glyph-name="close" unicode="&#xe824;" d="M844-25c-6 0-19 0-25 6l-319 325-319-319c-12-12-31-12-43 0s-13 32 0 44l318 319-325 319c-6 12-6 37 0 50s32 12 44 0l325-325 319 319c12 12 31 12 44 0s12-32 0-44l-319-319 319-319c12-12 12-31 0-44 0-12-13-12-19-12z" horiz-adv-x="1000" />

<glyph glyph-name="lock" unicode="&#xe825;" d="M844-150h-688c-50 0-93 44-93 94v437c0 50 43 94 93 94h94v125c0 138 113 250 250 250 138 0 250-112 250-250v-125h94c50 0 94-44 94-94v-437c0-50-44-94-94-94z m-688 563c-18 0-31-13-31-32v-437c0-19 13-32 31-32h688c19 0 31 13 31 32v437c0 19-12 32-31 32h-688z m157 62h375v125c0 106-82 188-188 188s-187-82-187-188v-125z m187-437c-69 0-125 56-125 125s56 125 125 125c69 0 125-57 125-125s-56-125-125-125z m0 187c-37 0-62-25-62-62s25-63 62-63 63 25 63 63-25 62-63 62z" horiz-adv-x="1000" />

<glyph glyph-name="org-add" unicode="&#xe826;" d="M844-88h-688c-50 0-93 44-93 94v125c0 19 12 32 31 32s31-13 31-32v-125c0-19 13-31 31-31h688c19 0 31 12 31 31 0 19 13 32 31 32s32-13 32-32c0-50-44-94-94-94z m-63 188c-18 0-31 13-31 31v157h-156c-19 0-31 12-31 31s12 31 31 31h156v156c0 19 13 32 31 32s32-13 32-32v-156h156c19 0 31-12 31-31s-12-31-31-31h-156v-157c0-18-13-31-32-31z m-362 125h-388c-18 0-31 13-31 31v313c0 50 44 94 94 94h219v156c0 19 12 31 31 31h312c19 0 32-12 32-31v-156h218c63 0 94-50 94-94 0-19-19-31-31-31s-31 12-31 31c0 12-7 31-32 31h-812c-19 0-31-12-31-31v-281h356c19 0 31-13 31-32s-12-31-31-31z m-44 438h250v125h-250v-125z" horiz-adv-x="1000" />

<glyph glyph-name="question" unicode="&#xe827;" d="M500-119c-256 0-469 213-469 469s213 469 469 469 469-213 469-469-213-469-469-469z m0 875c-225 0-406-181-406-406s181-406 406-406 406 181 406 406-181 406-406 406z m0-625c38 0 63-25 63-62s-25-63-63-63-62 25-62 63 25 62 62 62z m31 125c0 82 38 119 69 157 31 37 69 81 50 156-12 37-44 75-94 87-56 19-131 0-175-37-12-13-12-31 0-44 13-12 32-12 44 0 25 25 75 38 113 25 31-12 43-31 50-50 12-44 0-62-38-100-31-37-81-87-81-194 0-18 12-31 31-31s31 13 31 31z" horiz-adv-x="1000" />

<glyph glyph-name="exit" unicode="&#xe828;" d="M344-150c-6 0-13 0-19 6l-312 250c-7 7-13 13-13 25v688c0 0 0 0 0 0v0c0 0 0 0 0 0 0 0 0 0 0 0l0 0c0 6 0 6 0 12 0 7 6 7 6 13l0 0c0 0 0 0 0 0l0 0c0 0 0 0 0 0l0 0c0 0 0 0 0 0l0 0c0 0 7 6 13 6 6 0 6 0 12 0l0 0c0 0 0 0 0 0 0 0 0 0 0 0h0c0 0 0 0 0 0h500c19 0 32-12 32-31v-250c0-19-13-31-32-31s-31 12-31 31v219h-394l257-257c6-6 12-18 12-25v-625c0-12-6-25-19-31-6 0-6 0-12 0z m-281 294l250-200v550l-250 250v-600z m718-44c-6 0-18 0-25 6-12 13-12 32 0 44l138 138h-363c-18 0-31 12-31 31s13 31 31 31h363l-131 131c-13 13-13 32 0 44s31 13 43 0l188-187c0 0 0 0 0 0l0 0c0 0 0 0 0 0l0 0 0 0c0 0 6-7 6-13 0-6 0-6 0-12l0 0c0 0 0 0 0 0 0 0 0 0 0 0v0c0 0 0 0 0 0v0c0 0 0 0 0 0 0 0 0 0 0 0l0 0c0-7 0-7 0-13 0-6-6-6-6-12l0 0 0 0c0 0 0 0 0 0l0 0c0 0 0 0 0 0l-188-188c-6 0-18 0-25 0z" horiz-adv-x="1000" />

<glyph glyph-name="components" unicode="&#xe829;" d="M844-106h-188c-25 0-43 18-43 37-13 44-50 82-94 88-56 12-119-25-131-88-7-19-25-37-44-37h-188c-25 0-50 18-50 50v219c-62 25-106 81-119 150-18 93 32 187 126 225v218c0 25 18 50 50 50h187c25 0 44-18 44-37 6-44 44-81 87-88 57-12 119 25 132 88 6 19 25 37 43 37h188c25 0 50-18 50-50v-218c62-25 106-82 119-150 12-57 0-107-32-150-25-32-56-63-93-75v-219c0-25-19-50-44-50z m-156 93h106v207c0 25 19 44 37 44 32 6 57 25 69 43 19 25 19 57 19 82-6 50-44 87-81 93-19 7-38 25-38 44v206h-112c-38-87-132-143-225-118-69 12-125 62-150 118h-113v-206c0-25-19-44-37-44-57-12-94-68-82-125 7-43 44-81 82-87 18-6 37-25 37-44v-206h113c37 87 131 144 225 119 68-13 125-63 150-126z" horiz-adv-x="1000" />

<glyph glyph-name="kiosk" unicode="&#xe82a;" d="M938-156h-875c-25 0-50 18-50 50v244c0 12 6 18 6 31l137 181v125c0 25 19 50 50 50h357v63h-125c-25-7-50 12-50 37v163c0 25 18 50 50 50h325c25 0 50-19 50-50v-163c0-25-19-50-50-50h-107v-62h138c25 0 50-19 50-50v-132l137-181c7-6 13-19 13-31v-244c-6-13-31-31-56-31z m-825 93h781v182l-138 181c-6 6-12 19-12 31v94h-488v-100c0-12-6-19-6-31l-137-181v-176z m375 738h231v63h-231v-63z m175-625h-350c-25 0-50 19-50 50s18 50 50 50h350c25 0 50-19 50-50s-25-50-50-50z" horiz-adv-x="1000" />

<glyph glyph-name="products" unicode="&#xe82b;" d="M806-111h-612c-22 0-44 17-44 44v306c0 22 17 44 44 44s45-16 45-44v-267h528v267c0 22 16 44 44 44s45-16 45-44v-306c-12-22-28-44-50-44z m111 444h-834c-22 0-44 17-44 45v166c0 23 17 45 44 45h167l72 194c6 23 34 34 56 23 22-6 33-34 22-56l-61-167h322l-61 167c-6 22 6 44 22 56 22 5 45-6 56-23l72-194h167c22 0 44-17 44-45v-166c-5-22-22-45-44-45z m-795 84h750v83h-150c0 0 0 0 0 0h-444c0 0 0 0 0 0h-156v-83z" horiz-adv-x="1000" />

<glyph glyph-name="coupon" unicode="&#xe82c;" d="M992-17h-984v271h34c54 0 91 42 91 92 0 54-41 92-91 92h-34v270h980v-270h-30c-54 0-91-42-91-92 0-54 41-92 91-92h34v-271z m-917 63h854v150c-71 12-125 75-125 154 0 75 54 138 125 154v146h-854v-150c71-12 125-75 125-154 0-75-54-138-125-154v-146z m300 133l-46 46 296 296 46-46-296-296z m21 379c33 0 62-29 62-62s-29-63-62-63-63 30-63 63 30 62 63 62z m208-291c34 0 63-29 63-63s-29-62-63-62-62 29-62 62 29 63 62 63z" horiz-adv-x="1000" />

<glyph glyph-name="move-dots" unicode="&#xe82d;" d="M194 850c56 0 100-44 100-100s-44-100-100-100-100 44-100 100 44 100 100 100z m600 0c56 0 100-44 100-100s-44-100-100-100-100 44-100 100 44 100 100 100z m-600-400c56 0 100-44 100-100s-44-100-100-100-100 44-100 100 44 100 100 100z m600 0c56 0 100-44 100-100s-44-100-100-100-100 44-100 100 44 100 100 100z m-600-400c56 0 100-44 100-100s-44-100-100-100-100 44-100 100 44 100 100 100z m600 0c56 0 100-44 100-100s-44-100-100-100-100 44-100 100 44 100 100 100z" horiz-adv-x="1000" />

<glyph glyph-name="three-dots" unicode="&#xe82e;" d="M94 475c50 0 94-44 94-94s-44-93-94-93-94 43-94 93 44 94 94 94z m406 0c50 0 94-44 94-94s-44-93-94-93-94 43-94 93 44 94 94 94z m406 0c50 0 94-44 94-94s-44-93-94-93-93 43-93 93 43 94 93 94z" horiz-adv-x="1000" />

<glyph glyph-name="audio" unicode="&#xe82f;" d="M906-150c-6 0-12 0-18 6l-369 244h-425c-19 0-31 13-31 31v375c0 19 12 32 31 32h425l369 243c12 7 25 7 31 0s19-12 19-25v-875c0-12-7-25-19-25 0-6-6-6-13-6z m-781 313h406c7 0 13 0 19-7l325-219v763l-325-219c-6-6-12-6-19-6h-406v-312z" horiz-adv-x="1000" />

<glyph glyph-name="inactive" unicode="&#xe830;" d="M844-88h-688c-18 0-31 13-31 32v500c0 19 13 31 31 31s32-12 32-31v-469h625v469c0 19 12 31 31 31s31-12 31-31v-500c0-19-12-32-31-32z m125 626h-938c-18 0-31 12-31 31v187c0 19 13 32 31 32h938c19 0 31-13 31-32v-187c0-19-12-31-31-31z m-906 62h875v125h-875v-125z m593-437h-312c-19 0-31 12-31 31v187c0 19 12 32 31 32h312c19 0 32-13 32-32v-187c0-19-13-31-32-31z m-281 62h250v125h-250v-125z" horiz-adv-x="1000" />

<glyph glyph-name="books" unicode="&#xe831;" d="M669-113c-13 0-25 7-31 25l-225 776c0 6 0 18 0 25 6 6 12 12 25 12l300 88c6 0 18 0 25 0 6-7 12-13 12-19l225-781c0-7 0-19 0-26s-12-12-25-12l-300-88c0 0-6 0-6 0z m-13 188l38-119 237 69-37 119-238-69z m-175 600l157-537 237 68-156 538-238-69z m-137-763h-313c-18 0-31 13-31 32v812c0 19 13 32 31 32h313c19 0 31-13 31-32v-812c0-19-12-32-31-32z m-281 63h250v125h-250v-125z m0 188h250v562h-250v-562z" horiz-adv-x="1000" />

<glyph glyph-name="image" unicode="&#xe832;" d="M63 56c-7 0-19 0-25 7-13 12-13 31 0 43l237 238c13 12 31 12 44 0l150-150 212 269c7 6 13 12 25 12 7 0 19 0 25-6l238-238c12-12 12-31 0-43s-31-13-44 0l-212 212-213-269c-6-6-12-12-25-12-6 0-19 0-25 6l-156 150-213-212c-6-7-12-7-18-7z m906-87v762c0 50-38 88-88 88h-762c-50 0-88-38-88-88v-762c0-50 38-88 88-88h762c50 0 88 38 88 88z m-88 787c13 0 25-12 25-25v-762c0-13-12-25-25-25h-762c-13 0-25 12-25 25v762c0 13 12 25 25 25h762z m-556-200c0-50 38-87 88-87s87 37 87 87-37 88-87 88-88-38-88-88z" horiz-adv-x="1000" />

<glyph glyph-name="pdf" unicode="&#xe833;" d="M900 544h-212c-57 0-100 44-100 94v218h62v-218c0-19 19-32 38-32h212v-62z m13-625v675c0 6-7 19-13 25l-244 237c-6 7-12 7-18 7h-463c-50 0-87-32-87-82v-869c0-43 37-81 87-81h656c44 6 82 38 82 88z m-288 881l231-219v-662c0-13-12-19-25-19h-656c-12 0-25 6-25 19v862c0 13 13 19 25 19h450z m100-662c-37 0-94 18-144 43-56-6-118-31-181-50-25-43-50-75-69-100-68-75-125-25-118 13 12 50 81 94 131 112 31 50 69 132 100 194-25 75-31 131-19 169 13 37 88 44 100-13 13-37-6-100-12-143 18-57 50-94 100-125 43 6 131 12 162-13 13-25 13-87-50-87z m-381-19c-13-13-63-56-75-88-6 0 25 13 75 88z m131 294c13 25 13 106-6 106 0 0 0-69 6-106z m-62-244c37 12 87 37 137 50-25 19-56 50-75 87-19-43-37-93-62-137l0 0z m237 31c81-37 94-19 94-19 12 7 0 25-94 19z" horiz-adv-x="1000" />

<glyph glyph-name="bookmark" unicode="&#xe834;" d="M706 231c-150 0-268 119-268 263 0 144 118 262 262 262s263-118 263-262c6-144-113-263-257-263z m0 469c-112 0-206-94-206-206 0-113 94-200 200-200 113 0 200 94 200 200 6 112-87 206-194 206z m0-819c-6 0-12 0-18 6l-307 194-306-194c-12-6-19-6-31 0-13 7-19 19-19 25v757c0 81 69 150 150 150h294c19 0 31-13 31-31s-12-32-31-32h-288c-50 0-87-37-87-87v-700l275 175c12 6 25 6 31 0l275-175v175c0 19 13 31 31 31s32-12 32-31v-232c0-12-7-25-19-25-6-6-13-6-13-6z m0 469c-18 0-31 13-31 31v82h-87c-19 0-32 12-32 31s13 31 32 31h87v88c0 18 13 31 31 31s32-13 32-31v-88h87c19 0 31-12 31-31s-12-31-31-31h-87v-88c0-12-19-25-32-25z" horiz-adv-x="1000" />

<glyph glyph-name="video" unicode="&#xe835;" d="M906-88h-812c-50 0-94 44-94 94v688c0 50 44 94 94 94h812c50 0 94-44 94-94v-688c0-50-44-94-94-94z m-812 813c-19 0-31-12-31-31v-688c0-19 12-31 31-31h812c19 0 32 12 32 31v688c0 19-13 31-32 31h-812z m250-625c-6 0-13 0-13 6-12 0-18 13-18 25v438c0 12 6 25 18 25 7 6 19 6 32 0l343-219c7-6 13-19 13-25s-6-19-13-25l-343-219c-7-6-13-6-19-6z m31 413v-325l256 162-256 163z" horiz-adv-x="1000" />

<glyph glyph-name="folders" unicode="&#xe836;" d="M906-106h-500c-17 0-28 12-28 28v467c0 17 11 28 28 28h166c6 0 11 0 17-6l78-72h239c16 0 27-11 27-28v-389c0-11-11-28-27-28z m-473 56h445v333h-222c-6 0-12 0-17 6l-78 72h-128v-411z m-122 328c0 16-11 28-28 28h-183v444h128l78-78c5-5 11-5 22-5h222v-139c0-17 11-28 28-28s28 11 28 28v166c0 17-12 28-28 28h-239l-78 72c-5 6-11 12-22 12h-167c-16 0-28-12-28-28v-500c0-17 12-28 28-28h211c17 0 28 11 28 28z" horiz-adv-x="944" />

<glyph glyph-name="zip" unicode="&#xe837;" d="M844-88h-688c-87 0-156 69-156 157v687c0 19 13 32 31 32h313c12 0 19-7 25-13l119-175h481c19 0 31-12 31-31v-500c0-88-69-157-156-157z m-781 813v-656c0-50 43-94 93-94h688c50 0 94 44 94 94v469h-469c-13 0-19 6-25 12l-119 175h-262z m162-700c0 0 0 0 0 0-25 0-44 6-62 25-13 13-25 38-19 56l12 144h119l19-144c0-18-6-43-19-56-6-19-31-25-50-25z m-19 175l-12-100c0-6 0-12 6-19 6-6 13-12 25-12 0 0 0 0 0 0 13 0 19 6 25 12 0 7 6 13 6 19l-12 100h-38z m-6 19v87h-50v50h50v44h-50v50h50v44h-50v44h50v50h-50v43h50v50h-50v44h94v-44h50v-43h-50v-44h50v-56h-50v-44h50v-44h-50v-44h50v-43h-50v-44h50v-44h-50v-44l-44-12z" horiz-adv-x="1000" />

<glyph glyph-name="file" unicode="&#xe838;" d="M938 519c0 6-7 6-7 12l-312 313c0 0-6 6-13 6-6 0-6 0-12 0h-500c-19 0-31-12-31-31v-938c0-19 12-31 31-31h812c19 0 32 12 32 31v625c0 7 0 7 0 13z m-313 225l206-206h-206v206z m-500-832v876h438v-282c0-18 12-31 31-31h281v-563h-750z" horiz-adv-x="1000" />

<glyph glyph-name="school" unicode="&#xe839;" d="M719 663h156v-94c0-19 13-31 31-31s32 12 32 31v250c0 19-13 31-32 31h-187c-19 0-31-12-31-31v-125c0-19 12-31 31-31z m31 125h125v-63h-125v63z m219-313h-238l-212 181c-13 7-25 7-38 0l-212-181h-238c-18 0-31-12-31-31v-563c0-19 13-31 31-31h938c19 0 31 12 31 31v563c0 19-12 31-31 31z m-406-563h-125v251h125v-251z m375 0h-313v282c0 19-12 31-31 31h-188c-18 0-31-12-31-31v-282h-312v501h218c7 0 13 0 19 6l200 169 200-169c6-6 13-6 19-6h219v-501z" horiz-adv-x="1000" />

<glyph glyph-name="dollar" unicode="&#xe83a;" d="M531-150c-18 0-31 12-31 31v94c-87 0-175 19-250 50-19 6-25 25-19 38 7 18 25 25 38 18 75-25 156-43 231-43v287c-112 38-231 81-231 219 0 62 25 112 81 144 38 25 94 37 150 37v94c0 19 13 31 31 31s32-12 32-31v-94c75-6 150-25 193-50 13-6 19-25 13-44-6-12-25-18-44-12-31 19-94 37-162 44v-294c93-31 193-75 193-188 0-68-25-125-75-156-31-25-75-38-118-44v-100c0-19-13-31-32-31z m32 450v-262c31 6 62 12 81 31 31 25 50 56 50 106 0 69-50 100-131 125z m-63 363c-44 0-87-13-119-32-31-18-50-43-50-87 0-88 63-119 169-156v275z" horiz-adv-x="1000" />

<glyph glyph-name="email" unicode="&#xe83b;" d="M519-150c-131 0-275 31-375 150-194 219-94 538 31 688 156 162 394 206 600 118 169-68 275-243 256-431-12-212-106-269-187-275-75-6-125 25-156 100-32-37-69-62-113-81-62-25-119-19-175 6-112 63-119 200-81 300 19 63 106 250 406 156 13-6 25-18 19-31-13-87-19-181-19-269 0 0 0 0 0 0 13-87 44-125 106-118 75 6 119 81 132 218 18 157-75 307-219 369-181 75-388 38-525-106-119-131-194-419-31-600 162-188 468-125 575-88 18 6 31 0 37-19s0-31-19-37c-50-25-150-50-262-50z m69 700c-132 0-182-81-200-137-13-32-57-175 50-232 31-18 75-18 118 0 50 19 94 63 113 113 0 81 6 162 19 244-38 6-75 12-100 12z" horiz-adv-x="1063" />

<glyph glyph-name="impersonate" unicode="&#xe83c;" d="M906-119h-500c-50 0-93 44-93 94v188c0 18 12 31 31 31s31-13 31-31v-188c0-19 13-31 31-31h500c19 0 32 12 32 31v750c0 19-13 31-32 31h-500c-18 0-31-12-31-31v-187c0-19-12-32-31-32s-31 13-31 32v187c0 50 43 94 93 94h500c50 0 94-44 94-94v-750c0-50-44-94-94-94z m-187 438h-688c-18 0-31 12-31 31s13 31 31 31h688c19 0 31-12 31-31s-12-31-31-31z m-163-181l188 187c12 13 12 31 0 44l-188 187c-12 13-31 13-43 0s-13-31-7-43l169-163-162-162c-13-13-13-32 0-44 6-6 12-6 25-6s12-7 18 0z" horiz-adv-x="1000" />

<glyph glyph-name="plane" unicode="&#xe83d;" d="M731-63c-6 0-12 0-18 7l-407 306c-18 6-18 31-6 44 13 12 31 19 44 6l369-275 131 656-663-262 57-44c12-12 18-31 6-44-6-12-25-18-44-6l-100 75c-6 6-12 19-12 31 0 13 6 19 18 25l763 307c12 6 25 0 31-7 6-6 13-18 13-31l-150-763c0-12-13-18-19-25-6 0-13 0-13 0z m-387 13l156 188c13 12 13 31-6 43-13 13-31 13-44-6l-106-119 0 207 212 143c25 7 32 25 19 38-6 12-25 19-44 6l-225-150c-12-6-12-19-12-25l0-306c0-13 6-25 19-32 6 0 6 0 12 0 6 0 13 7 19 13z" horiz-adv-x="1000" />

<glyph glyph-name="double-left" unicode="&#xe83e;" d="M875-150c-19 0-37 6-50 25l-375 438c-19 25-19 56 0 81l375 437c25 25 63 32 88 7 25-25 31-63 6-88l0 0-338-400 338-400c25-25 19-69-6-88-7-6-25-12-38-12z m-375 0c-19 0-37 6-50 25l-375 438c-19 25-19 56 0 81l375 437c25 25 63 32 88 7 25-25 31-63 6-88l-338-400 338-400c25-25 19-69-6-88-7-6-25-12-38-12z" horiz-adv-x="1000" />

<glyph glyph-name="double-right" unicode="&#xe83f;" d="M63-150a62 62 0 0 1 47 22l375 437a63 63 0 0 1 0 82l-375 437a62 62 0 1 1-95-81l340-397-340-397a63 63 0 0 1 48-103z m375 0a62 62 0 0 1 47 22l375 437a63 63 0 0 1 0 82l-375 437a63 63 0 0 1-88 7 62 62 0 0 1-7-88l340-397-340-397a63 63 0 0 1 48-103z" horiz-adv-x="1000" />

<glyph glyph-name="rocket" unicode="&#xe840;" d="M838 438c0 6 6 6 6 12 37 81 62 169 69 281 0 7 0 19-7 25-6 7-12 13-25 7-106-7-200-32-281-69-6 0-6 0-12-6-25-13-44-25-63-38-112 44-244 19-331-69-19-18-31-37-50-62 0-13 0-25 12-38l100-100c-25-50-43-81-43-81 0-12 0-25 6-31l194-194c6-6 12-6 25-6 6 0 6 0 12 0 0 0 31 12 75 44l100-100c6-7 13-7 25-7 6 0 13 0 19 7 25 12 44 31 62 50 88 87 113 212 69 325 13 6 25 31 38 50z m-38 75l-144 143c57 19 119 38 188 44-6-75-19-131-44-187z m-581-7c6 13 12 25 25 32 56 56 137 81 212 68-75-56-125-118-162-175l-75 75z m225-375l-163 163c25 56 125 225 319 325l175-175c-100-188-269-288-331-313z m244-37c-7-6-19-19-32-25l-75 75c57 37 119 94 175 162 13-75-12-156-68-212z m-563 69c-44-44-62-188-62-219l-7-38 38 6c31 0 175 19 219 63l0 0c50 50 50 138 0 188-50 56-138 56-188 0z m144-138l0 0c-19-19-81-38-138-44 7 63 25 125 44 144 13 13 31 19 50 19 19 0 38-6 50-19 25-31 25-75-6-100z m344 375c0-37-25-62-63-62-37 0-62 25-62 62s25 63 62 63c38 0 63-25 63-63z" horiz-adv-x="1000" />

<glyph glyph-name="round" unicode="&#xe841;" d="M813 38c81 81 131 187 131 312 0 119-50 231-131 313 0 0 0 0 0 0 0 0 0 0 0 0-82 81-188 131-313 131-119 0-231-50-312-131 0 0 0 0 0 0 0 0 0 0 0 0-82-82-132-188-132-313 0-119 50-231 132-312 0 0 0 0 0 0s0 0 0 0c81-82 187-132 312-132 119 0 231 50 313 132 0 0 0 0 0 0 0 0 0 0 0 0z m-25 68l-113 113c25 37 44 81 44 131 0 50-19 94-44 131l113 113c56-69 87-150 87-244 6-94-31-181-87-244z m-450 244c0 44 18 81 50 113 0 0 0 0 0 0 0 0 0 0 0 0 31 31 68 50 112 50 44 0 81-19 113-50 0 0 0 0 0 0s0 0 0 0c31-32 50-69 50-113 0-87-75-162-163-162s-162 75-162 162z m406 288l-113-113c-37 31-81 50-131 50-50 0-94-19-131-44l-113 107c63 56 150 93 244 93s181-37 244-93z m-531-44l112-113c-31-37-50-81-50-131 0-50 19-94 44-131l-113-113c-50 63-87 150-87 244 0 94 37 181 94 244z m43-531l113 112c37-25 81-44 131-44 50 0 94 19 131 44l113-112c-69-57-150-88-244-88-94-6-181 31-244 88z" horiz-adv-x="1000" />

<glyph glyph-name="usd" unicode="&#xe842;" d="M537 722h9c34 0 69-6 105-18 35-12 66-29 91-51l-83-93a168 168 0 0 1-122 54v-200l4-1c28-8 56-16 83-25 27-10 51-22 72-37 21-15 38-34 51-56 13-23 19-51 19-85 0-34-6-63-18-89-12-26-28-48-49-66-21-18-45-33-72-43-28-11-58-18-90-22v-72h-54v71a366 366 0 0 0-126 21 267 267 0 0 0-107 69l91 93c16-23 37-40 62-52 25-12 52-20 80-22v211l-5 1a978 978 0 0 0-80 26 251 251 0 0 0-67 38 171 171 0 0 0-47 57c-11 22-17 50-17 84 0 30 6 57 18 81 12 24 28 44 48 62 20 18 43 32 69 43 26 10 53 17 81 20v67h54v-66z m-54-110a128 128 0 0 1-62-30c-19-16-28-36-28-61 0-16 3-28 8-37 5-10 11-18 19-24 8-7 18-13 29-17 11-4 22-9 34-14v183z m54-514c14 2 27 6 40 12 12 6 23 13 32 21 9 8 17 18 23 30 5 12 8 25 8 40s-3 27-9 37a83 83 0 0 1-25 25 171 171 0 0 1-33 17 779 779 0 0 1-36 13v-195z" horiz-adv-x="1000" />

<glyph glyph-name="filter" unicode="&#xe843;" d="M594-69h-188c-18 0-31 13-31 31s13 32 31 32h188c19 0 31-13 31-32s-12-31-31-31z m125 250h-438c-18 0-31 13-31 32s13 31 31 31h438c19 0 31-13 31-31s-12-32-31-32z m125 244h-688c-18 0-31 19-31 31s13 32 31 32h688c19 0 31-13 31-32s-12-31-31-31z m125 250h-938c-18 0-31 19-31 31s13 32 31 32h938c19 0 31-13 31-32s-12-31-31-31z" horiz-adv-x="1000" />

<glyph glyph-name="to-top" unicode="&#xe844;" d="M800 283l-300 300-300-300-29 30 329 329 329-329-29-30z m-275 317h-46v-688l4-20h42v708z m371 208h-792v-41h792v41z" horiz-adv-x="1000" />

<glyph glyph-name="phone" unicode="&#xe845;" d="M867-117c-460 0-834 374-834 834 0 6 7 20 7 26l133 134c14 13 34 13 47 0l200-200c13-14 13-34 0-47l-107-113 354-354 106 107c14 13 34 13 47 0l200-200c13-13 13-33 0-47l-133-133c0 0-14-7-20-7z m-767 820c7-413 340-746 753-753l100 100-153 153-107-106c-13-14-33-14-46 0l-400 400c-14 13-14 33 0 46l106 107-153 153-100-100z" horiz-adv-x="1067" />

<glyph glyph-name="back-left" unicode="&#xe846;" d="M1500 324h-1474c-15 0-26 10-26 26s11 26 26 26h1474c16 0 26-10 26-26s-10-26-26-26z m-1000-474c-5 0-16 0-21 5l-474 474c-5 11-5 32 0 42l474 474c11 5 32 5 42 0s11-27 0-37l-458-458 453-453c10-10 10-26 0-37 0-10-11-10-16-10z" horiz-adv-x="1526" />

<glyph glyph-name="speaker" unicode="&#xe847;" d="M469-150c-44 0-88 25-113 69l-162 325c-13 12-6 31 12 37 13 7 32 0 44-12l169-325c6-13 19-25 37-32 13 0 25 0 44 7 31 18 44 56 25 81l-56 113c-6 12 0 31 12 43 13 7 32 0 44-12l56-113c32-62 7-137-56-169-19-6-37-12-56-12z m519 194c6 6 12 12 12 25v750c0 12-6 19-12 25-13 6-25 6-32 6l-400-187h-337c-119 0-219-100-219-219s100-219 219-219h337l400-187c7 0 7 0 13 0 6 0 12 0 19 6z m-425 556c6 0 6 0 12 0l363 169v-650l-363 169c-6 0-6 0-12 0h-344c-88 0-156 68-156 156s68 156 156 156h344z" horiz-adv-x="1000" />

<glyph glyph-name="classes-light" unicode="&#xe848;" d="M875-138l0 0-519 0c-118 0-218 100-218 219v657c0 50 43 93 93 93h707l0-37v-875c0-32-25-57-63-57z m-512 63h512v-31l0 31c0 0 0 0 0 0v844h-644c-18 0-31-13-31-31v-657c0-68 44-125 100-144v726h63v-738z m287 419l-25 25-56 62-63-75-18 0-13 0-19 19 0 13v231h-206c-56 0-100 44-100 100s44 106 100 106h688l0-37v-175h-250v-244l-38-25z m-131 275v-150l37 44 25 6 19-19 25-31v150h-106z m-269 144c-25 0-44-19-44-44 0-25 19-44 44-44h625v88h-625z" horiz-adv-x="1000" />

<glyph glyph-name="class-grading" unicode="&#xe84a;" d="M875-163h-750c-62 0-112 50-112 113v750c0 63 50 113 112 113h63c25 0 50-19 50-50s-25-50-50-50h-63c-6 0-12-7-12-13v-750c0-6 6-13 12-13h750c6 0 13 7 13 13v750c0 6-7 13-13 13h-62c-25 0-50 18-50 50s18 50 50 50h62c63 0 113-50 113-113v-750c0-69-50-113-113-113z m-375 294l250 250c19 19 19 50 0 69s-50 19-69 0l-212-219-94 88c-19 19-44 19-62 0s-19-44 0-63l125-125c6-6 18-12 31-12s25 0 31 12z m238 563v125c0 25-19 50-50 50h-375c-25 0-50-19-50-50v-125c0-25 18-50 50-50h375c25 6 50 25 50 50z m-375 81h281v-31h-281v31z" horiz-adv-x="1000" />

<glyph glyph-name="class-info" unicode="&#xe84b;" d="M875-131h-750c-62 0-112 50-112 112v750c0 63 50 113 112 113h750c63 0 113-50 113-113v-750c-7-69-50-112-113-112z m-750 875c-6 0-12-6-12-13v-750c0-6 6-12 12-12h750c6 0 13 6 13 12v750c0 7-7 13-13 13h-750z m375-113c38 0 63-25 63-62s-25-63-63-63-62 25-62 63 25 62 62 62z m44-531v250c0 25-19 50-50 50s-38-25-38-50v-250c0-25 19-50 50-50s38 25 38 50z" horiz-adv-x="1000" />

<glyph glyph-name="stats-light" unicode="&#xe84c;" d="M969-88h-188c-18 0-31 13-31 32v812c0 19 13 32 31 32h188c19 0 31-13 31-32v-812c0-19-12-32-31-32z m-156 63h125v750h-125v-750z m-219-63h-188c-18 0-31 13-31 32v562c0 19 13 32 31 32h188c19 0 31-13 31-32v-562c0-19-12-32-31-32z m-156 63h125v500h-125v-500z m-219-63h-188c-18 0-31 13-31 32v312c0 19 13 32 31 32h188c19 0 31-13 31-32v-312c0-19-12-32-31-32z m-156 63h125v250h-125v-250z" horiz-adv-x="1000" />

<glyph glyph-name="arrow-up-down" unicode="&#xe850;" d="M750-150c0 0 0 0 0 0l0 0c0 0 0 0 0 0 0 0 0 0 0 0l0 0c-6 0-6 0-12 0-7 0-7 6-13 6l0 0c0 0 0 0 0 0 0 0 0 0 0 0l0 0c0 0 0 0 0 0l-187 188c-13 12-13 31 0 44s31 12 43 0l132-132v675c6 19 18 32 37 32s31-13 31-32v-675l132 132c12 12 31 12 43 0s13-32 0-44l-187-188c0 0 0 0 0 0l0 0c0 0 0 0 0 0 0 0 0 0 0 0l0 0c0 0-6-6-13-6 0 0 0 0-6 0l0 0c0 0 0 0 0 0 0 0 0 0 0 0l0 0c0 0 0 0 0 0z m-500 188c-19 0-31 12-31 31v675l-131-138c-13-6-38-6-50 0s-13 32 0 44l187 188c0 0 0 0 0 0l0 0c0 0 0 0 0 0l0 0c0 0 6 6 13 6 6 6 6 6 12 6l0 0c0 0 0 0 0 0 0 0 0 0 0 0h0c0 0 0 0 0 0h0c0 0 0 0 0 0 0 0 0 0 0 0l0 0c6 0 6 0 13 0 6 0 6-6 12-6l0 0c0 0 0 0 0 0l0 0c0 0 0 0 0 0l188-188c12-12 12-31 0-43s-38-13-50-7l-132 138v-675c0-19-12-31-31-31z" horiz-adv-x="1000" />

<glyph glyph-name="flag" unicode="&#xe852;" d="M156-150c-18 0-31 12-31 31v938c0 19 13 31 31 31s32-12 32-31v-31h656c12 0 19-7 25-13 6-6 6-19 0-31l-119-238 119-237c6-13 6-19 0-31-6-7-19-13-25-13h-656v-344c0-19-13-31-32-31z m32 438h606l-100 206c-6 6-6 19 0 25l100 206h-606v-437z" horiz-adv-x="1000" />

<glyph glyph-name="print" unicode="&#xe853;" d="M969 38h-188c-18 0-31 12-31 31s13 31 31 31h157v219c0 87-69 156-157 156h-562c-88 0-156-69-156-156v-219h156c19 0 31-12 31-31s-12-31-31-31h-188c-18 0-31 12-31 31v250c0 119 100 219 219 219h562c119 0 219-100 219-219v-250c0-19-12-31-31-31z m-188 562c-18 0-31 13-31 31v157h-500v-157c0-18-12-31-31-31s-31 13-31 31v188c0 19 12 31 31 31h562c19 0 32-12 32-31v-188c0-18-13-31-32-31z m0-750h-562c-19 0-31 12-31 31v375c0 19 12 32 31 32h562c19 0 32-13 32-32v-375c0-19-13-31-32-31z m-531 62h500v313h-500v-313z" horiz-adv-x="1000" />

<glyph glyph-name="class-comment" unicode="&#xe854;" d="M938 819c0 19-13 31-32 31h-812c-19 0-31-12-31-31v-938c0-19 12-31 31-31h500c6 0 6 0 12 0 7 0 7 6 13 6l312 313c0 0 7 6 7 12 0 7 0 7 0 13v625z m-813-31h750v-563h-281c-19 0-31-12-31-31v-282h-438v876z m706-625l-206-207v207h206z m-393 31c0-19-13-31-32-31h-125c-18 0-31 12-31 31s13 31 31 31h125c19 0 32-12 32-31z m-188 375c0 19 13 31 31 31h438c19 0 31-12 31-31s-12-31-31-31h-438c-18 0-31 12-31 31z m0-188c0 19 13 32 31 32h438c19 0 31-13 31-32s-12-31-31-31h-438c-18 0-31 13-31 31z" horiz-adv-x="1000" />

<glyph glyph-name="bell" unicode="&#xe855;" d="M500-111c-22 0-50 5-72 17-45 16-72 50-95 94-11 22 0 44 23 56 22 11 44 0 55-23 11-22 28-39 50-50 50-22 106 0 128 50 11 23 33 34 55 23 23-12 34-34 23-56-34-67-100-111-167-111z m0 167c-222 0-456 55-456 177 0 28 12 67 78 106 56 33 89 89 89 155v23c0 161 133 289 289 289 161 0 289-134 289-289v-17c0 0 0 0 0 0 0-67 33-122 89-156 61-38 78-77 78-105 0-122-234-183-456-183z m0 666c-117 0-211-89-211-205v-17c0-94-50-183-133-228-28-16-34-28-34-33 0-28 134-100 378-100s378 67 378 100c0 5-6 17-34 33-83 45-133 134-133 228v17c0 116-94 205-211 205z m250-222l0 0 0 0z" horiz-adv-x="1000" />

<glyph glyph-name="subscription-1pt" unicode="&#xe856;" d="M669-138h-338c-87 0-156 69-156 157v569c0 87 69 156 156 156h344c88 0 156-69 156-156v-569c0-88-75-157-162-157z m-338 819c-50 0-93-43-93-93v-569c0-50 43-94 93-94h344c50 0 94 44 94 94v569c0 50-44 93-94 93h-344z m188-87c6 6 19 12 19 25l81 169c6 18 0 31-19 43-19 7-31 0-44-18l-56-132-56 132c-6 18-25 25-44 18s-19-25-12-43l75-169c6-19 18-31 37-31 6 0 13 6 19 6z m137-88c0 19-12 32-31 32h-250c-19 0-31-13-31-32s12-31 31-31h250c19 0 31 13 31 31z" horiz-adv-x="1000" />

<glyph glyph-name="children" unicode="&#xe857;" d="M344 331c-131 0-238 107-238 238s107 237 238 237 237-106 237-237-106-238-237-238z m0 375c-75 0-138-62-138-137s63-138 138-138 137 63 137 138-62 137-137 137z m437-312c-93 0-168 81-168 175s75 175 175 175 175-75 175-175-88-175-182-175z m0 250c-43 0-75-38-75-75s38-75 75-75 75 37 75 75-31 75-75 75z m-125-750h-625c-25 0-50 18-50 50 0 200 163 362 363 362s362-162 362-362c-6-25-25-50-50-50z m-575 93h525c-25 126-131 219-262 219s-238-93-263-219z m888 32h-188c-25 0-50 19-50 50s19 50 50 50h138v12c0 25-6 57-25 75-44 63-131 82-194 38-19-13-50-6-62 12-13 19-7 50 12 63 106 69 256 44 325-69 25-37 38-81 38-131v-63c0-12-19-37-44-37z" horiz-adv-x="1000" />

<glyph glyph-name="elementary_32" unicode="&#xe858;" d="M630 243c-7 0-10 0-17 4-13 10-20 26-10 43 74 120 84 217 74 323 0 17 10 34 30 34 16 0 33-10 33-30 7-104 3-220-83-360-4-7-17-14-27-14z m-313-190c16 0 30 17 30 34-10 186 20 310 96 396 14 14 10 34-3 44-13 13-33 10-43-4-90-96-127-236-114-440 0-16 14-30 34-30-4 0-4 0 0 0z m446 4c17 6 20 26 14 43-107 207-244 367-457 540-13 10-33 10-43-3-10-14-10-34 3-44 203-166 337-323 440-520 7-10 17-16 27-16 6-4 10-4 16 0z m117-174h-33v-66h33v66z m-67 0h-33v-66h33v66z m-66 0h-34v-66h34v66z m-67 0h-33v-66h33v66z m-67 0h-33v-66h33v66z m-66 0h-34v-66h34v66z m-67 0h-33v-66h33v66z m-67 0h-33v-66h33v66z m-66 0h-34v-66h34v66z m-67 0h-33v-66h33v66z m-67 0h-33v-66h33v66z m-66 0h-34v-66h34v66z m813-53l-30 60c-7-3-13-7-20-7l10-66c13 3 27 6 40 13z m-873 53c-7 0-14 4-20 7l-34-57c14-6 27-13 40-16l14 66z m933 10l-60 27c-3-7-7-13-13-17l46-46c14 13 24 23 27 36z m-970 14c-3 6-10 13-10 20l-63-24c6-13 13-26 23-36l50 40z m983 43v23h-66v-23c0-3 0-3 0-7l66-6c0 3 0 10 0 13z m-1000 0v30h-66v-30c0-3 0-3 0-7l66 7z m1000 90h-66v-33h66v33z m-1000 7h-66v-34h66v34z m1000 60h-66v-34h66v34z m-1000 6h-66v-33h66v33z m1000 60h-66v-33h66v33z m-1000 7h-66v-33h66v33z m1000 60h-66v-33h66v33z m-1000 7h-66v-34h66v34z m1000 60h-66v-34h66v34z m-1000 6h-66v-33h66v33z m1000 60h-66v-33h66v33z m-1000 7h-66v-33h66v33z m1000 60h-66v-33h66v33z m-1000 7h-66v-34h66v34z m1000 60h-66v-34h66v34z m-1000 6h-66v-33h66v33z m1000 60h-66v-33h66v33z m-1000 7h-66v-33h66v33z m1000 60h-66v-33h66v33z m-1000 7h-66v-34h66v34z m1000 60h-66v-34h66v34z m-1000 6h-66v-33h66v33z m1000 37c0 10 0 20-3 30l-63-17c0-3 0-6 0-13v-10h66v10z m-1000 0c0 7 0 13 4 20l-64 20c-3-13-6-27-6-40v-3h66v3z m980 73c-6 14-16 24-30 34l-40-54c7-3 10-10 14-16l56 36z m-953-20l-37 57c-13-10-23-20-33-33l53-40c7 6 14 13 17 16z m883 74c-13 3-30 6-43 6v-66c7 0 13 0 23-4l20 64z m-843-60h33v66h-33c0 0 0 0 0 0-13 0-27-3-37-6l20-64c4 4 10 4 17 4z m767 66h-34v-66h34v66z m-67 0h-33v-66h33v66z m-67 0h-33v-66h33v66z m-66 0h-34v-66h34v66z m-67 0h-33v-66h33v66z m-67 0h-33v-66h33v66z m-66 0h-34v-66h34v66z m-67 0h-33v-66h33v66z m-67 0h-33v-66h33v66z m-66 0h-34v-66h34v66z m-67 0h-33v-66h33v66z" horiz-adv-x="1000" />

<glyph glyph-name="students" unicode="&#xe859;" d="M333 350c34 0 56-22 56-56s-22-55-56-55-55 22-55 55 22 56 55 56z m334 0c33 0 55-22 55-56s-22-55-55-55-56 22-56 55 22 56 56 56z m289 33c0 23-17 45-39 45 0 0-128 11-234 172-5 11-16 17-27 17-12 0-23 0-34-11-111-100-216-100-316-100-95 0-189 0-256-95-11-17-11-44 11-55 17-12 45-12 56 11 44 55 94 55 189 61 94 0 211 0 333 94 122-161 261-166 267-172 0 0 0 0 0 0 33-6 50 11 50 33z m-456-494c-250 0-456 205-456 455s206 462 456 462 456-206 456-456-206-461-456-461z m0 833c-206 0-378-166-378-378 0-205 167-377 378-377 206 0 378 166 378 377 0 212-172 378-378 378z" horiz-adv-x="1000" />

<glyph glyph-name="elementary" unicode="&#xe85a;" d="M88-131c-25 0-44 18-44 43-25 313 25 538 156 694-50 50-106 94-169 144-18 19-18 44-6 69 19 19 44 25 69 6 206-169 375-331 506-506 94 181 94 331 88 469 0 25 18 50 43 50 25 0 50-19 50-44 13-163 7-344-118-563 62-93 125-187 175-294 12-25 0-50-19-62-25-13-50 0-63 19-56 106-112 206-181 300-6 0-12 6-12 12-88 119-182 225-294 338-113-138-156-338-138-625 0-25-18-50-43-50 0 0 0 0 0 0z" horiz-adv-x="875" />

<glyph glyph-name="envelope" unicode="&#xe85c;" d="M906-88h-812c-50 0-94 44-94 94v688c0 50 44 94 94 94h812c50 0 94-44 94-94v-688c0-50-44-94-94-94z m-812 813c-19 0-31-12-31-31v-688c0-19 12-31 31-31h812c19 0 32 12 32 31v688c0 19-13 31-32 31h-812z m425-462l344 281c12 12 12 31 6 44-13 12-31 12-44 6l-325-269-325 269c-12 12-31 6-44-6-12-13-6-32 7-44l343-281c7-7 13-7 19-7s13 0 19 7z" horiz-adv-x="1000" />

<glyph glyph-name="excel" unicode="&#xe85d;" d="M125 788h750c38 0 63-25 63-63v-750c0-38-25-63-63-63h-750c-37 0-62 25-62 63v750c0 38 25 63 62 63z m306-419l-150 225h132l87-144 94 144h125l-150-225 175-263h-131l-113 175-112-175h-132l175 263z" horiz-adv-x="1000" />

<glyph glyph-name="powerpoint" unicode="&#xe85e;" d="M125 788h750c38 0 63-25 63-63v-750c0-38-25-63-63-63h-750c-37 0-62 25-62 63v750c0 38 25 63 62 63z m200-194h163c25 0 43 0 68-6 25-7 44-13 57-25 18-13 31-25 37-44s13-44 13-69c0-31-7-56-19-75-13-19-25-31-44-44-19-12-37-18-62-18-13 0-38-7-63-7h-62v-200h-88v488z m144-213c12 0 25 0 37 0s25 7 38 7 19 18 25 25c6 6 12 25 12 37 0 13-6 25-12 38-6 6-13 18-25 18-6 7-19 13-31 13-13 0-25 0-38 0h-62v-138c0 0 56 0 56 0z" horiz-adv-x="1000" />

<glyph glyph-name="word" unicode="&#xe85f;" d="M125 788h750c38 0 63-25 63-63v-750c0-38-25-63-63-63h-750c-37 0-62 25-62 63v750c0 38 25 63 62 63z m31-194h113l87-344h0l82 344h112l88-344h0l87 344h106l-143-488h-88l-100 332h0l-87-332h-113l-144 488z" horiz-adv-x="1000" />

<glyph glyph-name="c-hexagon" unicode="&#xe861;" d="M319 788l-256-257v-362l256-257h362l257 257v362l-257 257z" horiz-adv-x="1000" />

<glyph glyph-name="c-parallelogram" unicode="&#xe862;" d="M224 606l-224-512h776l224 512z" horiz-adv-x="1000" />

<glyph glyph-name="c-rectangle" unicode="&#xe863;" d="M0 53h1000v594h-1000z" horiz-adv-x="1000" />

<glyph glyph-name="c-ellipse" unicode="&#xe864;" d="M148 350c0-276 158-500 352-500 194 0 352 224 352 500 0 276-158 500-352 500-194 0-352-224-352-500" horiz-adv-x="1000" />

<glyph glyph-name="c-pentagon" unicode="&#xe865;" d="M500 788l-469-335 179-541h580l179 541z" horiz-adv-x="1000" />

<glyph glyph-name="c-half-round" unicode="&#xe866;" d="M500 600a500 500 0 0 1-500-500h1000a500 500 0 0 1-500 500" horiz-adv-x="1000" />

<glyph glyph-name="c-diamond" unicode="&#xe867;" d="M499 850l-468-500 468-500 468 500z" horiz-adv-x="1000" />

<glyph glyph-name="c-triangle" unicode="&#xe868;" d="M500 780l-500-860h1000z" horiz-adv-x="1000" />

<glyph glyph-name="c-square" unicode="&#xe869;" d="M63-88h875v876h-875z" horiz-adv-x="1000" />

<glyph glyph-name="c-round" unicode="&#xe86a;" d="M31 350a469 469 0 0 1 469-469 469 469 0 0 1 469 469 469 469 0 0 1-469 469 469 469 0 0 1-469-469z" horiz-adv-x="1000" />

<glyph glyph-name="c-round-bordered" unicode="&#xe86b;" d="M500-150c-275 0-500 225-500 500s225 500 500 500 500-225 500-500-225-500-500-500z m0 938c-244 0-437-194-437-438 0-244 193-438 437-438 244 0 438 194 438 438 0 244-194 438-438 438z" horiz-adv-x="1000" />

<glyph glyph-name="minus" unicode="&#xe86d;" d="M844-150h-688c-87 0-156 69-156 156v688c0 87 69 156 156 156h688c87 0 156-69 156-156v-688c0-87-69-156-156-156z m-688 938c-50 0-93-44-93-94v-688c0-50 43-94 93-94h688c50 0 94 44 94 94v688c0 50-44 94-94 94h-688z m625-438c0 19-12 31-31 31h-500c-19 0-31-12-31-31s12-31 31-31h500c19 0 31 12 31 31z" horiz-adv-x="1000" />

<glyph glyph-name="plus" unicode="&#xe86e;" d="M844-150h-688c-87 0-156 69-156 156v688c0 87 69 156 156 156h688c87 0 156-69 156-156v-688c0-87-69-156-156-156z m-688 938c-50 0-93-44-93-94v-688c0-50 43-94 93-94h688c50 0 94 44 94 94v688c0 50-44 94-94 94h-688z m375-688v219h219c19 0 31 12 31 31s-12 31-31 31h-219v219c0 19-12 31-31 31s-31-12-31-31v-219h-219c-19 0-31-12-31-31s12-31 31-31h219v-219c0-19 12-31 31-31s31 12 31 31z" horiz-adv-x="1000" />

<glyph glyph-name="grading-light" unicode="&#xe870;" d="M875-150h-750c-50 0-94 44-94 94v750c0 50 44 94 94 94h63c18 0 31-13 31-32s-13-31-31-31h-63c-19 0-31-12-31-31v-750c0-19 12-32 31-32h750c19 0 31 13 31 32v750c0 19-12 31-31 31h-62c-19 0-32 13-32 31s13 32 32 32h62c50 0 94-44 94-94v-750c0-50-44-94-94-94z m-412 288l250 250c12 12 12 31 0 43s-32 13-44 0l-231-225-100 107c-13 12-32 12-44 0s-13-32 0-44l125-125c6-6 12-6 25-6s12-7 19 0z m256 556v125c0 19-13 31-31 31h-375c-19 0-32-12-32-31v-125c0-19 13-31 32-31h375c18 0 31 12 31 31z m-375 94h312v-63h-312v63z" horiz-adv-x="1000" />

<glyph glyph-name="resources-light" unicode="&#xe871;" d="M969-88h-938c-18 0-31 13-31 32v812c0 19 13 32 31 32h300c13 0 25-7 25-19l119-231h494c19 0 31-13 31-32v-562c0-19-12-32-31-32z m-906 63h875v500h-482c-12 0-25 6-25 19l-118 231h-250v-750z m937 688c0 18-12 31-31 31h-594v-63h563v-125h62v157z" horiz-adv-x="1000" />

<glyph glyph-name="pluses" unicode="&#xe872;" d="M719-150h-563c-87 0-156 69-156 156v563c0 87 69 156 156 156h563c87 0 156-69 156-156v-563c0-87-69-156-156-156z m-563 813c-50 0-93-44-93-94v-563c0-50 43-94 93-94h563c50 0 94 44 94 94v563c0 50-44 94-94 94h-563z m819-663c25 25 25 69 25 119l0 581c0 81-69 150-156 150h-563l-18 0c-44 0-88 0-113-25-19-19-25-37-25-69h63c0 7 0 19 6 25 6 7 44 7 69 7l581 0c50 0 94-44 94-94l0-581c0-32 0-63-7-69-6-6-18-6-25-6v-63c32 0 50 6 69 25z m-506 38v218h219c18 0 31 13 31 32s-13 31-31 31h-219v219c0 18-13 31-31 31s-32-13-32-31v-219h-218c-19 0-32-13-32-31s13-32 32-32h218v-218c0-19 13-32 32-32s31 13 31 32z" horiz-adv-x="1000" />

<glyph glyph-name="remediation" unicode="&#xe873;" d="M500-150c-275 0-500 225-500 500s225 500 500 500 500-225 500-500-225-500-500-500z m0 938c-244 0-437-194-437-438 0-244 193-438 437-438 244 0 438 194 438 438 0 244-194 438-438 438z m-69-625v125h82l68-125h63l-81 137c43 19 75 63 75 113 0 75-50 125-132 125h-131v-375h56z m69 175h-69v150h69c56 0 81-32 81-75 0-38-25-75-81-75l0 0z" horiz-adv-x="1000" />

<glyph glyph-name="minuses" unicode="&#xe874;" d="M719-150h-563c-87 0-156 69-156 156v563c0 87 69 156 156 156h563c87 0 156-69 156-156v-563c0-87-69-156-156-156z m-563 813c-50 0-93-44-93-94v-563c0-50 43-94 93-94h563c50 0 94 44 94 94v563c0 50-44 94-94 94h-563z m819-663c25 25 25 69 25 119l0 581c0 81-69 150-156 150h-563l-18 0c-44 0-88 0-113-25-19-19-25-37-25-69h63c0 7 0 19 6 25 6 7 44 7 69 7l581 0c50 0 94-44 94-94l0-581c0-32 0-63-7-69-6-6-18-6-25-6v-63c32 0 50 6 69 25z m-256 288c0 18-13 31-31 31h-500c-19 0-32-13-32-31s13-32 32-32h500c18 0 31 13 31 32z" horiz-adv-x="1000" />

<glyph glyph-name="sign-up" unicode="&#xe88c;" d="M769 450l-88 88-250-257-125 125-87-81 212-212 338 337z m-269-600c-275 0-500 225-500 500s225 500 500 500 500-225 500-500-225-500-500-500z m0 906c-225 0-406-181-406-406s181-406 406-406 406 181 406 406-181 406-406 406z" horiz-adv-x="1000" />

<glyph glyph-name="warning-badge" unicode="&#xe894;" d="M136 168h-90l-46 682h182l-46-682z m-45-136c50 0 91-41 91-91s-41-91-91-91-91 41-91 91 41 91 91 91z" horiz-adv-x="182" />

<glyph glyph-name="admin" unicode="&#xe89c;" d="M939 622h-411c-22 0-45 17-45 45s17 44 45 44h405c23 0 45-17 45-44s-17-45-39-45z m-795 0h-83c-22 0-44 17-44 45s16 44 44 44h78c22 0 44-17 44-44s-16-45-39-45z m145-116c-89 0-161 72-161 161s72 161 161 161 161-72 161-161-72-161-161-161z m0 238c-45 0-78-33-78-77s33-78 78-78 78 33 78 78-34 77-78 77z m650-722h-411c-22 0-45 17-45 45s17 44 45 44h405c23 0 45-17 45-44s-17-45-39-45z m-795 0h-83c-22 0-44 17-44 45s16 44 44 44h78c22 0 44-17 44-44s-16-45-39-45z m145-122c-89 0-161 72-161 161s72 161 161 161 161-72 161-161-72-161-161-161z m0 244c-45 0-78-33-78-77s33-78 78-78 78 33 78 78-34 77-78 77z m650 178h-78c-22 0-44 17-44 45s16 39 39 39h77c23 0 45-17 45-45s-17-39-39-39z m-467 0h-411c-22 0-44 17-44 45s22 39 44 39h406c22 0 44-17 44-45s-17-39-39-39z m239-116c-89 0-161 72-161 161 0 89 72 161 161 161s161-72 161-161c0-89-72-161-161-161z m0 238c-44 0-78-33-78-77 0-45 34-78 78-78s78 33 78 78c0 44-33 77-78 77z" horiz-adv-x="1000" />

<glyph glyph-name="edit-squared" unicode="&#xe89d;" d="M250 69c-6 0-19 6-25 6-6 6-12 19-6 31l62 219c0 6 7 13 7 13l500 500c12 12 31 12 43 0l157-157c12-12 12-31 0-43l-500-500c-7-7-7-7-13-7l-219-62c0 0-6 0-6 0z m88 231l-44-156 156 44 350 350-112 112-350-350z m393 394l113-113 81 82-112 112-82-81z m144-750v312c0 19-12 32-31 32s-31-13-31-32v-312c0-19-13-32-32-32h-687c-19 0-31 13-31 32v687c0 19 12 32 31 32h312c19 0 32 12 32 31s-13 31-32 31h-312c-50 0-94-44-94-94v-687c0-50 44-94 94-94h687c50 0 94 44 94 94z" horiz-adv-x="1000" />

<glyph glyph-name="retest" unicode="&#xe89e;" d="M469-150c-256 0-469 213-469 469s213 469 469 469c169 0 319-100 400-269 6-13 0-31-13-44-12-6-31 0-43 13-69 150-200 237-344 237-225 0-406-181-406-406s181-407 406-407 406 182 406 407c0 19 13 31 31 31s32-12 32-31c0-256-213-469-469-469z m406 656v313c0 19-12 31-31 31s-31-12-31-31v-281h-282c-18 0-31-13-31-32s13-31 31-31h313c19 0 31 13 31 31z" horiz-adv-x="1000" />

<glyph glyph-name="launch" unicode="&#xe8ce;" d="M719-150h-625c-50 0-94 44-94 94v625c0 50 44 94 94 94h312c19 0 32-13 32-32s-13-31-32-31h-312c-19 0-31-12-31-31v-625c0-19 12-32 31-32h625c19 0 31 13 31 32v312c0 19 13 32 31 32s32-13 32-32v-312c0-50-44-94-94-94z m-250 438c-6 0-19 0-25 6-6 12-6 37 0 50l450 444h-363c-18 0-31 12-31 31s13 31 31 31h438c0 0 0 0 0 0l0 0c0 0 0 0 0 0 0 0 0 0 0 0l0 0c6 0 6 0 12 0s7-6 13-6l0 0c0 0 0 0 0 0v0l0 0c0 0 0 0 0 0l0 0c0 0 0 0 0 0l0 0 0 0c0 0 6-6 6-13 0-6 0-6 0-12l0 0c0 0 0 0 0 0 0 0 0 0 0 0v0c0 0 0 0 0 0v-438c0-18-12-31-31-31s-31 13-31 31v363l-444-450c-6-6-19-6-25-6z" horiz-adv-x="1000" />
</font>
</defs>
</svg>
