<svg xmlns="http://www.w3.org/2000/svg" width="534" height="371" viewBox="0 0 534 371">
    <g fill="none">
        <circle cx="101.5" cy="49.5" r="30.5" fill="#DFF3E5"/>
        <path fill="#F5F5F5" d="M249 163.762C249 235.835 206.243 261 153.5 261S58 235.835 58 163.762C58 91.688 153.5 0 153.5 0S249 91.688 249 163.762z"/>
        <path fill="#424242" d="M150.352 249.414L151.329 189.231 192 114.775 151.482 179.79 151.922 152.729 179.952 98.861 152.038 145.568 152.038 145.568 152.828 96.897 182.844 54.012 152.952 89.244 153.446 0 150.343 118.143 150.598 113.269 120.081 66.527 150.109 122.625 147.266 176.981 147.181 175.539 112 126.349 147.074 180.635 146.719 187.433 146.655 187.535 146.684 188.093 139.47 326 149.109 326 150.265 254.768 185.253 200.615z"/>
        <path fill="#F5F5F5" d="M534 193.272C534 252.366 499.078 273 456 273s-78-20.634-78-79.728C378 134.178 456 59 456 59s78 75.177 78 134.272z"/>
        <path fill="#424242" d="M452.64 263.275L453.446 213.984 487 153.003 453.573 206.251 453.935 184.088 477.061 139.969 454.031 178.222 454.031 178.222 454.683 138.361 479.446 103.237 454.785 132.093 455.193 59 452.633 155.761 452.844 151.77 427.667 113.487 452.44 159.432 450.094 203.951 450.024 202.769 421 162.482 449.936 206.944 449.643 212.511 449.59 212.595 449.614 213.052 443.663 326 451.615 326 452.569 267.66 481.434 223.308z"/>
        <ellipse cx="264.5" cy="324.5" fill="#424242" rx="264.5" ry="13.5"/>
        <ellipse cx="424.5" cy="346" fill="#424242" rx="45.5" ry="2"/>
        <ellipse cx="261.5" cy="369" fill="#424242" rx="45.5" ry="2"/>
        <ellipse cx="137" cy="350.5" fill="#424242" rx="103" ry="5.5"/>
        <path fill="#2F2E41" d="M51.494 299.731L62.926 299.731 62.927 320.236 51.494 320.236z" transform="rotate(.675 57.21 309.984)"/>
        <ellipse cx="60.903" cy="320.042" fill="#2F2E41" rx="3.576" ry="9.527" transform="rotate(-89.325 60.903 320.042)"/>
        <circle cx="47" cy="260" r="13" fill="#FFF"/>
        <path fill="#27B043" d="M104 291.607C104 317.84 88.33 327 69 327c-.448 0-.895-.005-1.341-.015-.896-.019-1.783-.061-2.66-.12C47.555 325.634 34 316.004 34 291.606c0-25.25 32.42-57.11 34.855-59.467l.004-.004L69 232s35 33.373 35 59.607z"/>
        <path fill="#424242" d="M67.382 322.001l13.087-17.805-13.12 19.76-.035 2.044c-.915-.02-1.822-.062-2.718-.121l1.41-26.25-.01-.204.023-.038.133-2.48L53 277.1l13.194 17.949.03.526 1.066-19.833-11.26-20.469 11.398 16.987 1.11-41.119.004-.14v.136l-.186 32.425 11.21-12.855-11.255 15.648-.297 17.758 10.467-17.042-10.51 19.655-.166 9.872L83 272.877l-15.252 27.165-.366 21.959z"/>
        <path fill="#2F2E41" d="M334.442 300.799L345.876 300.796 345.87 321.299 334.436 321.303z" transform="rotate(-17.083 340.156 311.05)"/>
        <path fill="#2F2E41" d="M356.298 294.078L367.732 294.074 367.726 314.578 356.292 314.581z" transform="rotate(-17.083 362.012 304.328)"/>
        <ellipse cx="346.878" cy="319.957" fill="#2F2E41" rx="9.528" ry="3.576" transform="rotate(-17.083 346.878 319.957)"/>
        <ellipse cx="368.594" cy="312.777" fill="#2F2E41" rx="9.528" ry="3.576" transform="rotate(-17.083 368.594 312.777)"/>
        <circle cx="338" cy="260" r="13" fill="#FFF"/>
        <path fill="#27B043" d="M272 286.587C272 310.612 257.674 319 240 319c-.41 0-.818-.005-1.226-.014-.82-.017-1.63-.056-2.432-.11C220.392 317.75 208 308.93 208 286.587c0-23.123 29.64-52.3 31.867-54.459l.004-.004L240 232s32 30.563 32 54.587z"/>
        <path fill="#424242" d="M238.944 315.338l11.778-16.305-11.808 18.095-.031 1.872c-.824-.017-1.64-.056-2.447-.11l1.27-24.04-.01-.187.021-.035.12-2.27L226 274.216l11.874 16.437.028.483.96-18.164-10.135-18.745 10.258 15.557.999-37.657.004-.128v.124l-.167 29.695 10.089-11.772-10.13 14.33-.267 16.263 9.42-15.608-9.46 18-.149 9.041L253 270.351l-13.727 24.877-.33 20.11z"/>
        <path fill="#27B043" d="M398 295.607C398 321.84 382.33 331 363 331c-.448 0-.895-.005-1.341-.015-.896-.019-1.783-.061-2.66-.12-17.445-1.23-30.999-10.86-30.999-35.258 0-25.25 32.42-57.11 34.855-59.467l.004-.004L363 236s35 33.373 35 59.607z"/>
        <path fill="#424242" d="M361.382 327.001l13.087-17.805-13.12 19.76-.035 2.044c-.915-.02-1.822-.062-2.718-.121l1.41-26.25-.01-.204.023-.038.133-2.48L347 282.1l13.194 17.949.03.526 1.066-19.833-11.26-20.469 11.398 16.987 1.11-41.119.004-.14v.136l-.186 32.425 11.21-12.855-11.255 15.648-.297 17.758 10.467-17.042-10.51 19.655-.166 9.872L377 277.877l-15.252 27.165-.366 21.959z"/>
    </g>
</svg>
