<svg xmlns="http://www.w3.org/2000/svg" width="24" height="24" viewBox="0 0 24 24">
    <g fill="none" fill-rule="evenodd" stroke-linecap="round" stroke-linejoin="round" stroke-width="1.5" transform="translate(0 1)">
        <circle cx="11.5" cy="11.5" r="3" stroke="#27B043"/>
        <path stroke="#212121" d="M19.5 11.5c-.001-.576-.064-1.15-.188-1.713l2.714-2.055-2-3.464-3.143 1.326c-.851-.78-1.861-1.367-2.961-1.719L13.5.5h-4l-.422 3.375c-1.1.352-2.11.939-2.961 1.719L2.974 4.268l-2 3.464 2.714 2.055c-.25 1.128-.25 2.298 0 3.426L.974 15.268l2 3.464 3.143-1.326c.851.78 1.861 1.367 2.961 1.719L9.5 22.5h4l.422-3.375c1.1-.352 2.11-.939 2.961-1.719l3.143 1.326 2-3.464-2.714-2.055c.124-.563.187-1.137.188-1.713z"/>
    </g>
</svg>
